<svg width="60" height="13" viewBox="0 0 85 13" fill="none" xmlns="http://www.w3.org/2000/svg">
<path d="M3.168 3.984C3.12 3.888 3.104 3.792 3.104 3.68C3.104 2.56 4.032 2.224 4.992 2.224C6.032 2.224 6.992 2.656 7.728 3.392L8.992 1.984C7.968 0.959999 6.512 0.335999 5.056 0.335999C3.408 0.335999 1.872 1.072 1.376 2.56L3.168 3.984ZM3.248 4.144H1.264C1.824 7.264 7.44 7.152 7.44 9.2C7.44 10.256 6.176 10.576 5.328 10.576C4.224 10.576 3.088 10.288 2.384 9.344L0.896 10.512C1.92 11.872 3.616 12.464 5.264 12.464C7.184 12.464 9.328 11.44 9.328 9.264C9.328 5.68 4.144 5.584 3.248 4.144ZM10.1229 12H12.1229L12.8429 10.432H18.1549L18.8749 12H20.8589L15.7389 0.799999H13.7229L15.2589 4.144H13.7229L10.1229 12ZM13.6749 8.64L15.4989 4.672L17.3229 8.64H13.6749ZM22.6535 2.848L24.2375 4.544H22.6535V12H24.5735V4.912L31.1495 12H31.7895V0.799999H29.8695V7.856L23.3095 0.799999H22.6535V2.848ZM34.056 12H35.944L36.936 5.648L40.296 12H40.936L44.296 5.6L45.288 12H47.176L45.496 0.799999H44.856L40.616 8.848L36.376 0.799999H34.376L36.376 4.592H35.176L34.056 12ZM49.2904 0.799999V2.592H51.2104L49.2904 4.144V7.744C49.2904 10.832 51.5624 12.384 53.8184 12.384C56.0904 12.384 58.3464 10.832 58.3464 7.744V0.799999H56.4264V7.744C56.4264 9.488 55.1304 10.352 53.8184 10.352C52.5224 10.352 51.2104 9.488 51.2104 7.744V0.799999H49.2904ZM62.5743 3.984C62.5263 3.888 62.5103 3.792 62.5103 3.68C62.5103 2.56 63.4383 2.224 64.3983 2.224C65.4383 2.224 66.3983 2.656 67.1343 3.392L68.3983 1.984C67.3743 0.959999 65.9183 0.335999 64.4623 0.335999C62.8143 0.335999 61.2783 1.072 60.7823 2.56L62.5743 3.984ZM62.6543 4.144H60.6703C61.2303 7.264 66.8463 7.152 66.8463 9.2C66.8463 10.256 65.5823 10.576 64.7343 10.576C63.6302 10.576 62.4943 10.288 61.7903 9.344L60.3023 10.512C61.3263 11.872 63.0223 12.464 64.6703 12.464C66.5903 12.464 68.7343 11.44 68.7343 9.264C68.7343 5.68 63.5503 5.584 62.6543 4.144ZM70.841 0.799999V2.592H72.761L70.841 4.144V12H72.761V0.799999H70.841ZM77.6644 4C78.2884 3.088 79.3124 2.464 80.7364 2.464C81.6804 2.464 82.4804 2.848 82.9444 3.264L84.0644 1.696C83.1044 0.976 81.9044 0.559999 80.7204 0.559999C78.7204 0.559999 77.2324 1.344 76.2724 2.512L77.6644 4ZM82.9444 9.568C82.5924 9.888 81.9364 10.336 80.7364 10.336C77.2004 10.336 76.1444 6.448 77.5844 4.144H75.3444C74.0644 7.568 75.8564 12.24 80.7204 12.24C82.1924 12.24 83.1524 11.856 84.0644 11.104L82.9444 9.568Z" fill="#F5EC9A"/>
</svg>
